# xmcd
#
# Track frame offsets:
#	150
#	13274
#	25375
#	39570
#	52820
#	66905
#	81589
#	93868
#	107853
#	120172
#	132986
#	146350
#	160174
#	172310
#	187256
#
# Disc length: 2686 seconds
#
# Revision: 0
# Processed by: cddbd v1.5.2PL0 Copyright (c) Steve Scherf et al.
# Submitted via: EasyCDDAExtractor 16.0.6.1
#
DISCID=d20a7c0f
DTITLE=Συλλογικός δίσκος - Τα καλύτερα ελληνικά τραγούδια 1971
DYEAR=1971
DGENRE=Λαϊκή
TTITLE0=Κόκοτας Σταμάτης - Ρωμιός αγάπησε Ρωμιά [Γ. Ζαμπέτα-Ξ. Φιλέρη]
TTITLE1=Γαλάνη Δήμητρα - Χασάπικο σαράντα [Μ. Χατζιδάκι-Ν. Γκάτσου]
TTITLE2=Καλατζής Γιάννης - Ο Σταμούλης ο λοχίας [Γ. Κατσαρού-Πυθαγόρα]
TTITLE3=Μητσιάς Μανώλης - Απόψε φθινοπώριασε [Μ. Χατζιδάκι-Ν. Γκάτσου]
TTITLE4=Φέρτης Γιάννης-Μάνου Αφροδίτη - Σαν με κοιτάς [Γ. Σπανού-Α. Αλεξόπουλο
TTITLE4=υ]
TTITLE5=Κόκοτας Σταμάτης - Δεν το μπορείς [Γ. Σπανού-Λ. Παπαδόπουλου]
TTITLE6=Γαλάνη Δήμητρα - Αγάπη μέσα στην καρδιά [Μ. Χατζιδάκι-Ν. Γκάτσου]
TTITLE7=Διαμάντη Λίτσα - Δεν υπάρχει ευτυχία [Γ. Κατσαρού-Πυθαγόρα]
TTITLE8=Μητσιάς Μανώλης - Κυκλαδίτικο [Μ. Χατζιδάκι-Ν. Γκάτσου]
TTITLE9=Καλατζής Γιάννης - Παραμυθάκι μου [Μ. Λοΐζου-Λ. Παπαδόπουλου]
TTITLE10=Πάριος Γιάννης - Γιατί με ειρωνεύεστε [Γ. Κατσαρού-Πυθαγόρα]
TTITLE11=Μπιθικώτσης Γρηγόρης - Φέρε μιά καλή [Γ. Μπιθικώτση-Κ. Βίρβου]
TTITLE12=Διονυσίου Στράτος - Αγάπη μου επικίνδυνη [Α. Ρεπάνη-Δ. Γκούτη]
TTITLE13=Διονυσίου Στράτος - Ο παλιατζής [Α. Ρεπάνη-Δ. Γκούφα]
TTITLE14=Μητροπάνος Δημήτρης - Άλλος για Χίο τράβηξε [Δ. Μούτση-Μ. Ελευθερίου]
EXTD=
EXTT0=
EXTT1=
EXTT2=
EXTT3=
EXTT4=
EXTT5=
EXTT6=
EXTT7=
EXTT8=
EXTT9=
EXTT10=
EXTT11=
EXTT12=
EXTT13=
EXTT14=
PLAYORDER=
